# xmcd
#
# Track frame offsets:
#	150
#	18187
#	32513
#	48193
#	66893
#	81717
#	97530
#	112440
#	126527
#	147700
#	160812
#	177601
#
# Disc length: 2531 seconds
#
# Revision: 0
# Processed by: cddbd v1.5.2PL0 Copyright (c) Steve Scherf et al.
# Submitted via: audiograbber 1.83.01
#
DISCID=ac09e10c
DTITLE=Harry Luge - Outlaw's in
DYEAR=2006
DGENRE=Country
TTITLE0=Two States Away
TTITLE1=Twenty One
TTITLE2=Back in Love Again
TTITLE3=Can't Drive You From My Mind
TTITLE4=Outlaw's in
TTITLE5=Give Me One More Try
TTITLE6=Honky Tonk Moon
TTITLE7=Just Some Things You Can't Take Back
TTITLE8=Walk on Water
TTITLE9=California
TTITLE10=Rattlesnake Road
TTITLE11=Closin' Time
EXTD=
EXTT0=
EXTT1=
EXTT2=
EXTT3=
EXTT4=
EXTT5=
EXTT6=
EXTT7=
EXTT8=
EXTT9=
EXTT10=
EXTT11=
PLAYORDER=
